<?xml version="1.0" standalone="no"?>
<!DOCTYPE svg PUBLIC "-//W3C//DTD SVG 20010904//EN"
 "http://www.w3.org/TR/2001/REC-SVG-20010904/DTD/svg10.dtd">
<svg version="1.0" xmlns="http://www.w3.org/2000/svg"
 width="100" height="100" rx="10" fill="white" viewBox="0 0 591.000000 533.000000"
 preserveAspectRatio="xMidYMid meet">

<g transform="translate(0.000000,533.000000) scale(0.100000,-0.100000)"
fill="#01015f" stroke="none">
<path d="M2828 5252 l-118 -67 0 -137 0 -136 103 -59 102 -59 2 -494 2 -495
-307 -176 -307 -176 -3 -365 -2 -365 -135 -77 -135 -78 -153 91 c-84 49 -160
93 -168 96 -8 3 -89 -39 -184 -95 -94 -55 -173 -100 -178 -100 -4 0 -6 -98 -5
-217 l3 -217 177 -102 176 -102 181 101 180 102 1 195 0 195 132 75 c72 41
135 76 139 78 4 2 94 -46 199 -107 l190 -110 0 42 0 42 -175 100 -175 100 0
336 0 336 288 167 c159 91 293 166 297 166 4 0 138 -75 297 -166 l288 -167 0
-336 -1 -336 -174 -100 -175 -100 0 -42 0 -42 148 86 c81 47 175 101 210 121
l62 36 0 351 0 350 204 118 c112 64 206 117 210 117 9 0 7 -1203 -2 -1216 -4
-5 -157 -97 -339 -204 l-333 -194 0 -193 c0 -106 3 -193 8 -192 4 0 232 129
507 287 l500 287 5 815 5 814 102 61 c56 33 122 71 146 84 l44 24 131 -77 c72
-42 134 -76 139 -76 4 1 76 40 158 89 l150 87 3 180 2 179 -153 88 c-84 48
-157 87 -162 87 -5 0 -78 -39 -162 -87 l-153 -88 0 -167 0 -167 -94 -55 c-51
-30 -120 -69 -152 -87 l-59 -31 -480 275 -480 275 -3 -186 c-1 -103 -1 -191 2
-198 2 -6 142 -91 310 -189 168 -98 305 -179 304 -181 -2 -1 -86 -50 -187
-109 l-185 -106 -41 23 c-23 13 -159 91 -303 173 l-261 150 2 495 2 494 103
59 102 59 0 134 0 134 -52 34 c-73 45 -183 106 -194 106 -5 0 -62 -30 -126
-68z m217 -49 l85 -48 0 -105 0 -106 -84 -48 c-46 -27 -87 -49 -90 -50 -3 -1
-43 21 -90 48 l-86 50 0 105 0 106 83 47 c45 26 85 47 90 47 4 1 45 -20 92
-46z m2015 -781 l115 -67 3 -147 3 -146 -117 -68 c-64 -37 -122 -67 -129 -67
-7 0 -65 30 -129 67 l-117 68 3 146 3 147 115 67 c63 37 120 67 125 67 6 0 62
-30 125 -67z m-3205 -1824 l145 -83 -3 -174 -2 -174 -140 -83 c-77 -46 -146
-83 -153 -83 -7 -1 -77 36 -157 82 l-145 82 0 175 0 176 143 81 c78 45 148 82
155 83 6 0 77 -37 157 -82z"/>
<path d="M3056 3222 c-3 -5 4 -8 16 -8 29 1 46 -28 28 -49 -7 -9 -22 -14 -32
-12 -10 3 -18 1 -18 -4 0 -13 44 -11 58 3 27 27 7 78 -29 78 -10 0 -20 -4 -23
-8z"/>
<path d="M3107 3104 c-4 -4 -7 -17 -7 -29 0 -12 -11 -32 -25 -45 -14 -13 -25
-30 -25 -39 0 -10 10 -5 33 16 17 17 43 33 57 35 20 2 25 9 25 33 0 25 -5 31
-25 33 -14 2 -29 0 -33 -4z m51 -26 c-2 -15 -10 -23 -23 -23 -13 0 -21 8 -23
23 -3 18 1 22 23 22 22 0 26 -4 23 -22z"/>
<path d="M3273 3044 c-3 -9 -1 -25 5 -35 7 -10 12 -56 12 -101 0 -69 -3 -85
-21 -104 -12 -12 -27 -20 -33 -18 -17 7 -40 -22 -32 -41 8 -23 45 -18 55 8 5
12 18 31 30 41 19 17 21 30 21 116 0 59 4 100 12 108 8 8 8 15 -2 27 -16 20
-39 19 -47 -1z m37 -14 c0 -11 -7 -20 -15 -20 -15 0 -21 21 -8 33 12 13 23 7
23 -13z m-62 -273 c2 -10 -3 -17 -12 -17 -18 0 -29 16 -21 31 9 14 29 6 33
-14z"/>
<path d="M3173 3003 c-7 -3 -13 -9 -13 -15 0 -5 -25 -39 -56 -74 -31 -36 -54
-67 -52 -70 3 -3 33 20 66 50 33 31 67 56 76 56 9 0 16 4 16 9 0 5 -9 7 -20 4
-13 -4 -20 0 -20 9 0 22 12 29 27 17 8 -7 13 -8 13 -1 0 12 -21 21 -37 15z"/>
<path d="M3130 2855 c-10 -12 -10 -19 -2 -27 7 -7 12 -30 12 -53 0 -23 -5 -46
-12 -53 -13 -13 6 -42 29 -42 19 0 28 29 14 43 -14 14 -14 90 1 105 8 8 8 15
-2 27 -7 8 -16 15 -20 15 -4 0 -13 -7 -20 -15z m36 -6 c10 -17 -13 -36 -27
-22 -12 12 -4 33 11 33 5 0 12 -5 16 -11z m0 -130 c10 -17 -13 -36 -27 -22
-12 12 -4 33 11 33 5 0 12 -5 16 -11z"/>
<path d="M2770 2329 c0 -8 3 -24 6 -36 6 -23 8 -23 180 -23 l174 0 6 25 c4 14
4 29 0 32 -3 3 -87 8 -186 11 -149 4 -180 2 -180 -9z"/>
<path d="M2794 2224 c3 -9 6 -22 6 -30 0 -11 28 -14 155 -14 127 0 155 3 155
14 0 8 3 21 6 30 5 14 -13 16 -161 16 -148 0 -166 -2 -161 -16z"/>
<path d="M2869 2123 c7 -26 12 -29 80 -37 79 -9 91 -4 91 42 0 21 -3 22 -89
22 l-89 0 7 -27z"/>
<path d="M0 455 l0 -445 105 0 105 0 0 185 0 185 203 -2 202 -3 3 -182 2 -183
100 0 100 0 0 445 0 445 -100 0 -100 0 0 -175 0 -175 -205 0 -205 0 0 175 0
175 -105 0 -105 0 0 -445z"/>
<path d="M1040 455 l0 -445 100 0 100 0 0 445 0 445 -100 0 -100 0 0 -445z"/>
<path d="M1341 893 c0 -5 85 -204 188 -443 l188 -435 104 0 103 0 106 245 c59
135 145 334 192 443 l86 197 -102 0 -101 0 -135 -315 c-74 -173 -137 -315
-140 -315 -4 0 -66 142 -140 315 l-134 315 -108 0 c-59 0 -108 -3 -107 -7z"/>
<path d="M2390 455 l0 -445 345 0 345 0 0 80 0 80 -245 0 -245 0 0 105 0 105
205 0 205 0 0 80 0 80 -205 0 -205 0 0 100 0 100 235 0 235 0 0 80 0 80 -335
0 -335 0 0 -445z"/>
</g>
<defs>
<linearGradient id="paint0_linear_1545_39" x1="8" y1="35.5" x2="38.0109" y2="10.5484" gradientUnits="userSpaceOnUse">
<stop stop-color="#989FFF"/>
<stop offset="1" stop-color="#29A2FF"/>
</linearGradient>
</defs>
</svg>
